<?xml version="1.0" encoding="UTF-8"?>
<svg version="1.1" xmlns="http://www.w3.org/2000/svg" width="827" height="132">
<path d="M0 0 C-1.94509224 13.61564565 -9.95657318 25.53680495 -17.78662109 36.53295898 C-24.33487454 45.89918812 -27.33101132 54.50616266 -26 66 C-24.25991445 74.23277977 -20.41402323 80.5491748 -14 86 C-5.5244569 91.31948501 2.05322818 92.86493668 12 92 C22.07585042 89.5733554 29.25717857 85.21965183 34.7109375 76.3828125 C39.43494783 67.65055099 40.64226127 58.62118833 37.8125 49 C35.23546724 42.51585304 31.01753685 37.07570446 27.01000977 31.41894531 C23.26250046 26.05674163 20.02973986 20.67371242 17.25 14.75 C16.76611816 13.73268799 16.76611816 13.73268799 16.27246094 12.69482422 C14.34415985 8.40793115 13.45523026 4.62418105 13 0 C27.73381015 2.48469579 38.38739078 7.23973708 49 18 C49.64839844 18.63808594 50.29679687 19.27617187 50.96484375 19.93359375 C60.77754822 30.26162625 64.94422581 43.79396589 65.4375 57.8125 C64.99078332 75.25387292 58.49598916 89.81693211 46 102 C33.70891401 113.40830081 19.23333853 117.52706665 2.8046875 117.24609375 C-12.59756141 116.24984972 -26.09256811 109.90743189 -37 99 C-49.48555601 84.02898338 -53.42330206 68.05363215 -52 49 C-49.85963436 34.21233561 -41.92944878 21.52185094 -30.62109375 11.99609375 C-22.15638911 5.70531004 -10.80044602 0 0 0 Z " fill="#FFFFFF" transform="translate(56,7)"/>
<path d="M0 0 C0.85207031 -0.04898438 1.70414062 -0.09796875 2.58203125 -0.1484375 C7.47397638 0.83435208 9.72982988 4.73656941 12.51171875 8.6171875 C13.30512366 9.82443427 14.09265828 11.03555464 14.875 12.25 C15.2978125 12.89332275 15.720625 13.53664551 16.15625 14.19946289 C17.97753549 16.97134927 19.78403117 19.75271015 21.58837891 22.53564453 C22.9493751 24.63149322 24.31825707 26.72203358 25.6875 28.8125 C26.10862061 29.46911621 26.52974121 30.12573242 26.96362305 30.80224609 C27.98626357 32.36185139 29.08046769 33.87411966 30.1875 35.375 C32.75111363 35.375 33.82849938 34.53345665 36.01953125 33.20703125 C36.80755127 32.73241455 37.59557129 32.25779785 38.4074707 31.76879883 C39.26300537 31.24697021 40.11854004 30.7251416 41 30.1875 C41.8871167 29.65084717 42.7742334 29.11419434 43.68823242 28.5612793 C51.03519358 24.10562378 58.33917718 19.5807367 65.6394043 15.04907227 C71.01430839 11.71412989 76.39790877 8.3951854 81.8125 5.125 C82.72672729 4.56872925 82.72672729 4.56872925 83.65942383 4.0012207 C88.28713296 1.22032205 91.49556038 0.24921248 96.875 0.3125 C97.86886719 0.32152344 98.86273437 0.33054688 99.88671875 0.33984375 C101.02560547 0.35724609 101.02560547 0.35724609 102.1875 0.375 C101.59023708 5.52300483 99.95697236 9.64796053 97.8359375 14.30859375 C97.49881744 15.06358658 97.16169739 15.81857941 96.81436157 16.59645081 C95.73691335 19.00477966 94.64975983 21.40858738 93.5625 23.8125 C92.85485452 25.39230313 92.14781799 26.97237919 91.44140625 28.55273438 C87.11731388 38.2048201 82.68234839 47.80132684 78.1875 57.375 C67.6275 57.375 57.0675 57.375 46.1875 57.375 C47.01931126 52.38413247 48.21553713 48.52207756 50.25 44 C50.53166016 43.35933594 50.81332031 42.71867187 51.10351562 42.05859375 C51.79209421 40.49470341 52.48894711 38.93446059 53.1875 37.375 C51.2900357 38.52520412 49.39359501 39.67704862 47.49829102 40.83081055 C45.86242531 41.82590616 44.22486396 42.81821915 42.58569336 43.80786133 C38.73584273 46.1455522 34.9371125 48.50417787 31.26171875 51.109375 C20.08115333 58.99723264 20.08115333 58.99723264 12.7109375 58.31640625 C7.39940965 56.33486103 4.46722704 51.78978739 1.1875 47.375 C-0.30885666 45.51789182 -1.80867562 43.66356625 -3.3125 41.8125 C-3.9621875 40.98621094 -4.611875 40.15992188 -5.28125 39.30859375 C-6.66815261 37.4808985 -6.66815261 37.4808985 -7.8125 36.375 C-8.07466309 36.97562256 -8.33682617 37.57624512 -8.60693359 38.19506836 C-9.79375751 40.9038719 -10.99047932 43.60818794 -12.1875 46.3125 C-12.6 47.25802734 -13.0125 48.20355469 -13.4375 49.17773438 C-13.83710938 50.07685547 -14.23671875 50.97597656 -14.6484375 51.90234375 C-15.01501465 52.73499756 -15.3815918 53.56765137 -15.75927734 54.42553711 C-16.8125 56.375 -16.8125 56.375 -18.8125 57.375 C-20.68629605 57.44533769 -22.56251102 57.4593022 -24.4375 57.4375 C-25.44039063 57.42847656 -26.44328125 57.41945312 -27.4765625 57.41015625 C-28.24742187 57.39855469 -29.01828125 57.38695312 -29.8125 57.375 C-29.29911964 51.19360885 -27.26949026 46.34125674 -24.6640625 40.75 C-24.25086761 39.84427246 -23.83767273 38.93854492 -23.41195679 38.00537109 C-22.09559312 35.12461747 -20.76690545 32.24975494 -19.4375 29.375 C-18.11812122 26.49898574 -16.80125257 23.62183099 -15.48446655 20.74462891 C-14.66630281 18.9594722 -13.84611846 17.17523971 -13.02359009 15.39208984 C-12.64665009 14.57434082 -12.26971008 13.7565918 -11.88134766 12.9140625 C-11.52566711 12.14352539 -11.16998657 11.37298828 -10.80352783 10.57910156 C-9.87524827 8.51455568 -9.01358047 6.43282228 -8.16162109 4.3359375 C-6.21081085 0.05446326 -4.42893832 0.17264227 0 0 Z " fill="#FFFFFF" transform="translate(474.8125,37.625)"/>
<path d="M0 0 C0.96550781 -0.03738281 1.93101562 -0.07476562 2.92578125 -0.11328125 C6.53217317 0.44272543 7.28005073 1.58977305 9.6875 4.3125 C11.32675178 6.58613173 12.90675189 8.8607337 14.453125 11.1953125 C14.89138611 11.85079071 15.32964722 12.50626892 15.78118896 13.18161011 C16.70112183 14.5601542 17.61874658 15.94024105 18.53417969 17.32177734 C19.94038524 19.44184994 21.35638345 21.55513625 22.7734375 23.66796875 C23.66725934 25.01002213 24.56050891 26.35245686 25.453125 27.6953125 C25.87805237 28.32865509 26.30297974 28.96199768 26.74078369 29.61453247 C29.6875 34.08254717 29.6875 34.08254717 29.6875 36.3125 C37.66573951 32.07634533 45.39030514 27.51515454 53.0625 22.75 C54.74194702 21.7125061 54.74194702 21.7125061 56.45532227 20.65405273 C61.95884413 17.2538156 67.45224995 13.83744499 72.94140625 10.4140625 C73.90320801 9.81537354 74.86500977 9.21668457 75.85595703 8.59985352 C77.66478806 7.47312179 79.47183776 6.34352394 81.27685547 5.21069336 C82.48365967 4.45864624 82.48365967 4.45864624 83.71484375 3.69140625 C84.41343506 3.2538501 85.11202637 2.81629395 85.83178711 2.36547852 C89.41976312 0.32957001 92.33599072 0.20248224 96.375 0.25 C97.36886719 0.25902344 98.36273438 0.26804688 99.38671875 0.27734375 C100.52560547 0.29474609 100.52560547 0.29474609 101.6875 0.3125 C101.17804347 6.71412263 98.95669069 11.85082128 96.3203125 17.6640625 C95.88492157 18.64112152 95.44953064 19.61818054 95.00094604 20.62484741 C94.0820796 22.68241514 93.15898817 24.73810068 92.23193359 26.79199219 C90.81582358 29.93013484 89.41268585 33.0738221 88.01171875 36.21875 C87.11533579 38.22169109 86.21822489 40.22430659 85.3203125 42.2265625 C84.90145782 43.16311676 84.48260315 44.09967102 84.05105591 45.06460571 C82.95336494 47.49238055 81.82304583 49.90229784 80.6875 52.3125 C80.242854 53.33545166 79.79820801 54.35840332 79.34008789 55.41235352 C77.6875 57.3125 77.6875 57.3125 74.5012207 57.88012695 C73.21820068 57.85394287 71.93518066 57.82775879 70.61328125 57.80078125 C69.9294487 57.79370651 69.24561615 57.78663177 68.5410614 57.77934265 C66.35958841 57.75138004 64.18069506 57.68865064 62 57.625 C60.5202194 57.59991897 59.04039851 57.57710544 57.56054688 57.55664062 C53.93536137 57.50155135 50.31168247 57.41527108 46.6875 57.3125 C47.34232967 52.09831683 48.45205406 48.11756928 50.75 43.375 C51.29785156 42.23160156 51.84570312 41.08820313 52.41015625 39.91015625 C52.83167969 39.05292969 53.25320312 38.19570312 53.6875 37.3125 C45.41980101 41.91647355 37.55814362 46.98070294 29.74462891 52.31152344 C29.0026123 52.81458008 28.2605957 53.31763672 27.49609375 53.8359375 C26.83407959 54.28888184 26.17206543 54.74182617 25.48999023 55.20849609 C22.3279352 57.14521732 19.44555114 57.54394479 15.8125 57.6875 C14.96945313 57.73648438 14.12640625 57.78546875 13.2578125 57.8359375 C9.52056072 57.07485583 8.17971755 55.15416562 5.6875 52.3125 C5.22827148 51.79059082 4.76904297 51.26868164 4.29589844 50.73095703 C2.84503302 49.06498376 1.41996076 47.3798614 0 45.6875 C-0.72799805 44.82898438 -0.72799805 44.82898438 -1.47070312 43.953125 C-3.56272532 41.47155385 -5.51012662 39.01606007 -7.3125 36.3125 C-7.78300781 37.25351563 -8.25351563 38.19453125 -8.73828125 39.1640625 C-12.48828125 46.6640625 -12.48828125 46.6640625 -13.41259766 48.50878906 C-14.27592087 50.23918297 -15.12844024 51.97495436 -15.98046875 53.7109375 C-17.3125 56.3125 -17.3125 56.3125 -18.3125 57.3125 C-20.33214199 57.38494053 -22.35417124 57.39627188 -24.375 57.375 C-25.47972656 57.36597656 -26.58445313 57.35695312 -27.72265625 57.34765625 C-29.00462891 57.33025391 -29.00462891 57.33025391 -30.3125 57.3125 C-29.63189497 52.23428754 -27.51311035 47.84567028 -25.453125 43.20703125 C-24.87374176 41.8881617 -24.87374176 41.8881617 -24.28265381 40.54264832 C-23.4645738 38.68322862 -22.64406107 36.8248776 -21.82128906 34.9675293 C-20.57564016 32.15467239 -19.33796357 29.33841651 -18.1015625 26.52148438 C-17.30255647 24.70812478 -16.50309157 22.8949673 -15.703125 21.08203125 C-15.33834045 20.25250443 -14.97355591 19.4229776 -14.59771729 18.5683136 C-6.42954801 0.16180319 -6.42954801 0.16180319 0 0 Z " fill="#FFFFFF" transform="translate(169.3125,37.6875)"/>
<path d="M0 0 C15.64287636 -2.61459505 27.88101908 4.30835658 41.44970703 11.20751953 C45.93826303 13.4737125 50.47009814 15.6411553 55.01123047 17.79956055 C57.00400703 18.74683896 58.99405684 19.69988101 60.98095703 20.65942383 C61.86509277 21.08634521 62.74922852 21.5132666 63.66015625 21.953125 C64.42980713 22.32598633 65.19945801 22.69884766 65.99243164 23.08300781 C68.13043303 24.10265245 68.13043303 24.10265245 71 25 C71.37125 23.80310547 71.37125 23.80310547 71.75 22.58203125 C73.28638096 18.17933955 75.11339797 13.94944335 77 9.6875 C77.35578125 8.86443359 77.7115625 8.04136719 78.078125 7.19335938 C78.42359375 6.41154297 78.7690625 5.62972656 79.125 4.82421875 C79.59292969 3.75820435 79.59292969 3.75820435 80.0703125 2.6706543 C81 1 81 1 83 0 C85.37402501 -0.07116382 87.75000677 -0.08409085 90.125 -0.0625 C91.40632813 -0.05347656 92.68765625 -0.04445312 94.0078125 -0.03515625 C95.48894531 -0.01775391 95.48894531 -0.01775391 97 0 C96.42943375 5.93388903 94.06010676 10.85492275 91.6328125 16.21875 C91.19742157 17.19485229 90.76203064 18.17095459 90.31344604 19.17663574 C88.92379539 22.28737913 87.52438492 25.39362543 86.125 28.5 C85.19079677 30.58957137 84.25719648 32.67941242 83.32421875 34.76953125 C75.97552572 51.19538427 75.97552572 51.19538427 73 57 C64.87631916 58.0334011 59.08395011 57.02762198 51.8125 53.5625 C51.04128815 53.207323 50.27007629 52.852146 49.47549438 52.48620605 C47.82784614 51.72595927 46.18268254 50.9603079 44.53985596 50.18969727 C41.99527541 48.99778695 39.44326542 47.82350874 36.88818359 46.65429688 C31.7107385 44.28325396 26.54239408 41.89285028 21.375 39.5 C19.57818095 38.66914983 17.78130619 37.83842013 15.984375 37.0078125 C11.65561009 35.00658879 7.3275899 33.00376328 3 31 C2.52804199 32.01465332 2.05608398 33.02930664 1.56982422 34.07470703 C0.93980834 35.42742269 0.3097611 36.78012373 -0.3203125 38.1328125 C-0.63009033 38.79901611 -0.93986816 39.46521973 -1.2590332 40.15161133 C-8.33443234 55.33443234 -8.33443234 55.33443234 -10 57 C-12.35313555 57.07271741 -14.70833668 57.08370868 -17.0625 57.0625 C-18.35285156 57.05347656 -19.64320313 57.04445312 -20.97265625 57.03515625 C-21.97167969 57.02355469 -22.97070312 57.01195312 -24 57 C-23.47293319 51.02773637 -21.64243334 46.33547911 -19.140625 40.91796875 C-18.75436951 40.06374832 -18.36811401 39.20952789 -17.97015381 38.329422 C-16.73844723 35.61156591 -15.49422283 32.89964516 -14.25 30.1875 C-13.42890802 28.37730649 -12.60858816 26.56676254 -11.7890625 24.75585938 C-8.00997459 16.42921559 -4.22040056 8.11502052 0 0 Z " fill="#FFFFFF" transform="translate(322,38)"/>
<path d="M0 0 C1.27810547 -0.12568359 1.27810547 -0.12568359 2.58203125 -0.25390625 C6.92202299 1.10600121 8.13229899 4.70065992 10.1875 8.5625 C10.69692139 9.48828857 11.20634277 10.41407715 11.73120117 11.36791992 C13.46760825 14.54651026 15.17425798 17.73969343 16.875 20.9375 C22.00285821 30.5767907 22.00285821 30.5767907 27.359375 40.08984375 C27.83028564 40.90727051 28.30119629 41.72469727 28.78637695 42.56689453 C29.65569149 44.06580017 30.53644487 45.55815084 31.43041992 47.04248047 C33.95042102 51.4075108 34.23262344 52.33688282 33.1875 57.5625 C20.3175 57.5625 7.4475 57.5625 -5.8125 57.5625 C-16.28839792 38.93868147 -16.28839792 38.93868147 -19.375 32.6875 C-19.88643555 31.67623047 -19.88643555 31.67623047 -20.40820312 30.64453125 C-22.8125 25.81658702 -22.8125 25.81658702 -22.8125 23.5625 C-25.70877736 25.54101746 -28.60443209 27.52044445 -31.5 29.5 C-32.29728516 30.04462891 -33.09457031 30.58925781 -33.91601562 31.15039062 C-40.90118596 35.92681145 -47.85465315 40.74552911 -54.8125 45.5625 C-43.5925 45.8925 -32.3725 46.2225 -20.8125 46.5625 C-21.8125 53.5625 -21.8125 53.5625 -23.8125 57.5625 C-42.9525 57.5625 -62.0925 57.5625 -81.8125 57.5625 C-82.1425 56.9025 -82.4725 56.2425 -82.8125 55.5625 C-79.5329169 52.00415234 -75.8093903 49.3654165 -71.8125 46.6875 C-70.36921073 45.70788661 -68.9265305 44.72737547 -67.484375 43.74609375 C-66.72318359 43.22901855 -65.96199219 42.71194336 -65.17773438 42.17919922 C-61.11596308 39.40287289 -57.08988765 36.57587054 -53.0625 33.75 C-52.2262207 33.16387939 -51.38994141 32.57775879 -50.52832031 31.97387695 C-47.95594159 30.17070915 -45.38413441 28.36672913 -42.8125 26.5625 C-33.1229997 19.764458 -23.43330205 12.96721281 -13.6875 6.25 C-13.0181543 5.78762939 -12.34880859 5.32525879 -11.65917969 4.84887695 C-7.57825783 2.04391473 -4.94928055 0.3487499 0 0 Z " fill="#FFFFFF" transform="translate(639.8125,37.4375)"/>
<path d="M0 0 C1.41630748 0.00748446 2.83262549 0.01316692 4.24894714 0.01715088 C7.92996129 0.03223444 11.61031776 0.07136006 15.29107666 0.1159668 C19.06570546 0.15729896 22.84044325 0.17524183 26.61523438 0.1953125 C33.98727509 0.23787699 41.35877887 0.30591004 48.73046875 0.390625 C47.6578365 7.32951152 47.6578365 7.32951152 45.73046875 10.390625 C43.44841407 11.53165234 42.18583062 11.51501782 39.65136719 11.51660156 C38.80999207 11.52040833 37.96861694 11.52421509 37.10174561 11.52813721 C35.73460419 11.52967804 35.73460419 11.52967804 34.33984375 11.53125 C32.41405071 11.54958143 30.48826913 11.56915205 28.5625 11.58984375 C25.52307863 11.61879062 22.4843923 11.64062437 19.44482422 11.64111328 C16.5133323 11.64445374 13.58353996 11.67904345 10.65234375 11.71875 C9.74901306 11.7116803 8.84568237 11.7046106 7.91497803 11.69732666 C3.65275497 11.77925576 0.65953587 11.98393947 -2.74804688 14.69165039 C-4.80418831 16.89252603 -6.2764154 18.55401926 -7.53515625 21.24609375 C-8.03317749 22.29700195 -8.03317749 22.29700195 -8.54125977 23.36914062 C-8.86408936 24.09810547 -9.18691895 24.82707031 -9.51953125 25.578125 C-9.86234131 26.32900391 -10.20515137 27.07988281 -10.55834961 27.85351562 C-12.8988928 33.13894356 -15.06632297 38.53822641 -15.26953125 44.390625 C-13.09170444 46.56845181 -8.01850047 45.65152416 -4.984375 45.70703125 C-4.05355606 45.72781235 -3.12273712 45.74859344 -2.16371155 45.77000427 C0.82177057 45.83560431 3.80734359 45.89443302 6.79296875 45.953125 C8.81185851 45.9963003 10.83073895 46.03991425 12.84960938 46.08398438 C17.80980172 46.19129629 22.77008584 46.29253388 27.73046875 46.390625 C28.73046875 49.390625 28.73046875 49.390625 27.953125 51.43359375 C27.57027344 52.14128906 27.18742188 52.84898438 26.79296875 53.578125 C26.41269531 54.29355469 26.03242187 55.00898437 25.640625 55.74609375 C25.34027344 56.28878906 25.03992188 56.83148438 24.73046875 57.390625 C16.52412907 57.48359617 8.31801206 57.55452634 0.11127472 57.59787369 C-3.7000956 57.61868579 -7.51110371 57.64688497 -11.32226562 57.69238281 C-15.00516789 57.73607079 -18.68772333 57.75980999 -22.37086487 57.77013397 C-23.77101597 57.7774845 -25.17114961 57.79183798 -26.57115173 57.81354523 C-34.53556739 57.93204394 -40.54191944 57.89808421 -47.26953125 53.390625 C-51.93338399 47.65049856 -52.94771805 42.68741264 -52.26953125 35.390625 C-49.98381487 23.36155829 -42.63157119 13.60593202 -32.64453125 6.703125 C-22.2908858 0.81086074 -11.68856208 -0.18481493 0 0 Z " fill="#FFFFFF" transform="translate(730.26953125,37.609375)"/>
<path d="M0 0 C2.60342403 2.60342403 3.48074389 5.55917923 4.75 8.9375 C8.88480138 19.54026702 14.3217606 28.74268961 20.94921875 37.95703125 C25.90962498 45.31732925 28.00644811 52.1656221 27 61 C24.7163874 69.24086288 21.00262353 75.43285907 13.5 79.8125 C6.61497978 83.55804797 -0.38976186 83.82443453 -7.9375 81.9375 C-15.0019114 79.63645884 -20.04003411 75.36227232 -23.4375 68.75 C-25.32107674 64.52673376 -26.17868546 60.95388784 -26.25 56.3125 C-26.27578125 55.31863281 -26.3015625 54.32476562 -26.328125 53.30078125 C-25.58639904 45.83937132 -22.18135631 40.41589323 -17.8125 34.5 C-10.21147389 23.82954708 -4.49573524 12.30411751 0 0 Z M9 48 C5.535 50.97 5.535 50.97 2 54 C1.67 52.35 1.34 50.7 1 49 C0.34 49 -0.32 49 -1 49 C-2.49926962 51.09956889 -3.85646023 53.1728609 -5.1875 55.375 C-5.56841797 55.97828125 -5.94933594 56.5815625 -6.34179688 57.203125 C-7.29629694 58.76219952 -8.15590022 60.37849474 -9 62 C-8.67 62.66 -8.34 63.32 -8 64 C-5.69 62.02 -3.38 60.04 -1 58 C-0.67 59.98 -0.34 61.96 0 64 C2.78576391 61.46357916 4.71423062 58.59630744 6.75 55.4375 C7.38421875 54.46683594 8.0184375 53.49617188 8.671875 52.49609375 C9.11015625 51.67238281 9.5484375 50.84867188 10 50 C9.67 49.34 9.34 48.68 9 48 Z " fill="#FFFFFF" transform="translate(62,10)"/>
<path d="M0 0 C1.34362885 0.00031689 2.68728332 0.01162897 4.03076172 0.03173828 C4.73820526 0.03456818 5.4456488 0.03739807 6.17453003 0.04031372 C8.43667432 0.05151941 10.69842437 0.07662399 12.96044922 0.10205078 C14.49299559 0.11208011 16.02554816 0.12120604 17.55810547 0.12939453 C21.31737223 0.15145992 25.07634386 0.18599183 28.83544922 0.22705078 C28.3193696 6.38940448 26.31113997 11.23755977 23.72216797 16.81689453 C23.31134476 17.7202504 22.90052155 18.62360626 22.47724915 19.55433655 C21.16755283 22.42833417 19.84530239 25.29635832 18.52294922 28.16455078 C17.64520104 30.08801629 16.76824003 32.01184122 15.89208984 33.93603516 C14.27191485 37.48429248 12.65055459 41.03196408 11.01782227 44.57446289 C10.5293708 45.63533363 10.5293708 45.63533363 10.03105164 46.71763611 C8.350196 50.24553445 6.58309577 53.73175768 4.83544922 57.22705078 C-5.72455078 57.22705078 -16.28455078 57.22705078 -27.16455078 57.22705078 C-28.56991032 53.01097217 -26.77756027 50.4543626 -25.00830078 46.62158203 C-24.66835083 45.86471603 -24.32840088 45.10785004 -23.97814941 44.32804871 C-22.88269193 41.89433146 -21.77400921 39.46691281 -20.66455078 37.03955078 C-19.94749484 35.45467578 -19.23133946 33.86939299 -18.51611328 32.28369141 C-17.45151018 29.92361218 -16.38562365 27.56419068 -15.31396484 25.20730591 C-13.55559468 21.33649982 -11.82215849 17.45781637 -10.14111328 13.55273438 C-9.66405945 12.44607674 -9.66405945 12.44607674 -9.17736816 11.31706238 C-8.5796346 9.92475561 -7.98590557 8.53072048 -7.39685059 7.13471985 C-4.47100486 0.32078649 -4.47100486 0.32078649 0 0 Z " fill="#FFFFFF" transform="translate(284.16455078125,37.77294921875)"/>
<path d="M0 0 C10.56 0 21.12 0 32 0 C30.87494149 7.87540954 30.87494149 7.87540954 29.31347656 11.30786133 C28.96931702 12.07588577 28.62515747 12.84391022 28.27056885 13.63520813 C27.89768738 14.44265976 27.52480591 15.25011139 27.140625 16.08203125 C26.75436951 16.93625168 26.36811401 17.79047211 25.97015381 18.670578 C24.73844723 21.38843409 23.49422283 24.10035484 22.25 26.8125 C21.42890802 28.62269351 20.60858816 30.43323746 19.7890625 32.24414062 C16.00346078 40.57910332 12.09687162 48.80625677 8 57 C-2.56 57 -13.12 57 -24 57 C-25.12888006 53.61335981 -24.9693241 53.28223071 -23.57226562 50.2097168 C-23.2344104 49.45430099 -22.89655518 48.69888519 -22.54846191 47.920578 C-21.98306702 46.69725517 -21.98306702 46.69725517 -21.40625 45.44921875 C-21.02190796 44.59882523 -20.63756592 43.7484317 -20.24157715 42.87226868 C-19.42209842 41.06374359 -18.59794081 39.25733257 -17.76953125 37.45288086 C-16.52428749 34.74040469 -15.29204421 32.02235727 -14.0625 29.30273438 C-13.26118874 27.53871158 -12.45912663 25.77502963 -11.65625 24.01171875 C-11.29551392 23.21843674 -10.93477783 22.42515472 -10.56311035 21.60783386 C-7.20883824 14.3085332 -3.59947461 7.19894921 0 0 Z " fill="#FFFFFF" transform="translate(428,38)"/>
<path d="M0 0 C5.34011173 2.27125662 9.70175605 5.54167063 12 11 C13.97053685 16.19505169 13.48940522 21.55625459 11.75 26.6875 C8.74488006 32.37576274 6.12150134 35.68999949 0 38 C-6.32705145 39.52600499 -11.26357136 39.12235989 -17 36 C-21.8796851 32.97503684 -24.36979195 29.52459395 -26 24 C-26.90346397 17.17382777 -26.04456398 11.65453604 -22 6 C-15.37309718 -0.29555768 -8.94967312 -1.2037572 0 0 Z M-18.25 9.375 C-20.86510786 13.2976618 -22.04899829 15.65254715 -21.875 20.4375 C-20.51520189 25.97382086 -17.89277276 30.00120379 -13 33 C-8.9392547 34.35358177 -5.24531048 34.82031176 -1.12890625 33.31640625 C3.23112768 31.05668974 5.89916121 28.5378118 8 24 C8.78531421 19.02904202 8.56049459 15.21066831 6.4375 10.625 C2.5286619 6.41548205 -0.81668106 4.26812689 -6.5625 3.5625 C-11.62386858 4.20667418 -14.73390308 5.66356437 -18.25 9.375 Z " fill="#FFFFFF" transform="translate(804,37)"/>
<path d="M0 0 C2.12472576 -0.05386629 4.24983652 -0.09273071 6.375 -0.125 C7.55835938 -0.14820313 8.74171875 -0.17140625 9.9609375 -0.1953125 C13 0 13 0 15 2 C14.90625 3.98828125 14.90625 3.98828125 14.5 6.3125 C13.96291809 10.13998027 14.09181513 12.52036878 16 16 C15.01 16.33 14.02 16.66 13 17 C10.35247996 14.42215154 8.05567935 12.08351902 6 9 C6 8.01 6 7.02 6 6 C6.99 5.67 7.98 5.34 9 5 C7.68 4.67 6.36 4.34 5 4 C5 7.63 5 11.26 5 15 C3.02 15.99 3.02 15.99 1 17 C0 16 0 16 -0.09765625 12.40234375 C-0.0909822 10.91403133 -0.07902183 9.42573568 -0.0625 7.9375 C-0.05798828 7.17888672 -0.05347656 6.42027344 -0.04882812 5.63867188 C-0.0370068 3.75908129 -0.01907078 1.87953101 0 0 Z " fill="#FFFFFF" transform="translate(790,47)"/>
</svg>
